<svg width="14" height="17" viewBox="0 0 14 17" fill="none" xmlns="http://www.w3.org/2000/svg">
<path d="M12.3335 6.97669C12.0874 6.97669 11.8566 7.04373 11.6584 7.16052C11.5838 6.49546 11.0181 5.97712 10.3335 5.97712C10.008 5.97712 9.70881 6.09491 9.4764 6.29111C9.243 5.90359 8.81818 5.64392 8.3335 5.64392C8.091 5.64392 7.86312 5.70898 7.66684 5.82287V2.31202C7.66681 1.57696 7.06884 0.979248 6.3335 0.979248C5.59815 0.979248 5.00015 1.57696 5.00015 2.31202V11.2294C5.00015 11.3973 4.88946 11.4836 4.84193 11.5129C4.7944 11.5422 4.66646 11.6023 4.51771 11.5275L2.37709 10.4576C2.18209 10.36 1.96368 10.3086 1.74559 10.3086C0.966933 10.3086 0.333496 10.9418 0.333496 11.7201V11.9746C0.333496 12.067 0.371902 12.1551 0.439277 12.2183L4.28662 15.8076C5.09193 16.5586 6.14209 16.9724 7.24331 16.9724H9.33346C11.7228 16.9724 13.6668 15.0293 13.6668 12.6409V8.30947C13.6668 7.57441 13.0688 6.97669 12.3335 6.97669ZM13.0002 12.6409C13.0002 14.6619 11.3553 16.306 9.3335 16.306H7.24334C6.31168 16.306 5.42303 15.9559 4.74171 15.3201L1.00015 11.8298V11.7201C1.00015 11.3092 1.33446 10.975 1.74559 10.975C1.8605 10.975 1.97606 11.0023 2.07893 11.0537L4.21956 12.1236C4.53175 12.2801 4.89565 12.2628 5.19253 12.08C5.4894 11.8965 5.66681 11.5786 5.66681 11.2294V2.31202C5.66681 1.94468 5.96596 1.64565 6.33346 1.64565C6.70096 1.64565 7.00012 1.94468 7.00012 2.31202V7.3099C7.00012 7.49407 7.14921 7.6431 7.33346 7.6431C7.51771 7.6431 7.66681 7.49407 7.66681 7.3099V6.97669C7.66681 6.60935 7.96596 6.31032 8.33346 6.31032C8.70096 6.31032 9.00012 6.60935 9.00012 6.97669V7.3099C9.00012 7.31055 9.00012 7.31121 9.00012 7.31186V7.31218C9.00143 7.49504 9.15018 7.6431 9.33346 7.6431C9.51771 7.6431 9.66681 7.49407 9.66681 7.3099V7.30468C9.6694 6.93993 9.96825 6.64349 10.3335 6.64349C10.701 6.64349 11.0001 6.94252 11.0001 7.30986V8.30944C11.0001 8.49361 11.1492 8.64264 11.3335 8.64264C11.5177 8.64264 11.6668 8.49361 11.6668 8.30944C11.6668 7.9421 11.966 7.64307 12.3335 7.64307C12.701 7.64307 13.0002 7.9421 13.0002 8.30947V12.6409Z" fill="black"/>
</svg>
