<svg xmlns="http://www.w3.org/2000/svg">
    <defs>
        <symbol id="envelope">
            <path d="M14.5 0H1.50001C0.672854 0 0 0.672623 0 1.4995V10.4964C0 11.3233 0.672854 11.9959 1.50001 11.9959H14.5C15.3271 11.9959 16 11.3233 16 10.4964V1.4995C16 0.672623 15.3271 0 14.5 0ZM14.5 0.999653C14.5679 0.999653 14.6325 1.01374 14.6916 1.03835L8 6.83604L1.30833 1.03835C1.36742 1.01378 1.43204 0.999653 1.49998 0.999653H14.5ZM14.5 10.9962H1.50001C1.22414 10.9962 0.999996 10.7722 0.999996 10.4964V2.09449L7.67236 7.87523C7.76661 7.95673 7.8833 7.99726 8 7.99726C8.1167 7.99726 8.23339 7.95676 8.32764 7.87523L15 2.09449V10.4964C15 10.7722 14.7759 10.9962 14.5 10.9962Z" />
        </symbol>
        <symbol id="telefon">
            <path d="M8.5 0H1.5C0.672848 0 0 0.672848 0 1.5V14.5C0 15.3272 0.672848 16 1.5 16H8.5C9.32715 16 10 15.3272 10 14.5V1.5C10 0.672848 9.32715 0 8.5 0ZM1.5 1H8.5C8.77588 1 9 1.22412 9 1.5V12H1V1.5C1 1.22412 1.22412 1 1.5 1ZM8.5 15H1.5C1.22412 15 1 14.7759 1 14.5V13H9V14.5C9 14.7759 8.77588 15 8.5 15Z"/>
        </symbol>
        <symbol id="antenna">
            <path d="M67.3163 48.3385 48.8468 29.7337l2.0498-10.0964a4.6548 4.6548 0 0 0 1.659.3185h.014c2.6081.0308 4.7473-2.0584 4.7783-4.6665.0309-2.6081-2.0585-4.7473-4.6666-4.7782-2.6081-.0308-4.7473 2.0584-4.7782 4.6665a4.719 4.719 0 0 0 .2729 1.6387l-10.85 1.3242L19.6276.35A1.1664 1.1664 0 0 0 18.804 0a1.1665 1.1665 0 0 0-.8167.3395l-3.3087 3.29c-.4554.4556-.4554 1.194 0 1.6497l1.7804 1.806C9.5616 19.768 11.8019 35.474 21.9703 45.7228c.0933.0893.2015.1615.3197.2135a6.7707 6.7707 0 0 0-.1144 1.197v13.5334h-14c-3.22.0038-5.8295 2.6133-5.8333 5.8333v2.3333c0 .6443.5224 1.1667 1.1667 1.1667h53.6666c.6443 0 1.1667-.5224 1.1667-1.1667V66.5c-.0038-3.22-2.6133-5.8295-5.8333-5.8333h-14v-5.9979a32.879 32.879 0 0 0 6.6686.7 32.4831 32.4831 0 0 0 15.4-3.9013l1.7897 1.8002c.2171.2215.5135.3475.8237.35a1.1668 1.1668 0 0 0 .8166-.3395l3.3087-3.29c.4554-.4556.4554-1.1941 0-1.6497ZM50.9246 13.6348c.9137-.9088 2.3911-.9047 3.2998.0089.9088.9137.9047 2.3911-.0089 3.2998a2.3335 2.3335 0 0 1-1.646.679h-.007c-1.2886-.0067-2.328-1.0567-2.3213-2.3454a2.3341 2.3341 0 0 1 .6879-1.6423h-.0045Zm-2.7463 7.6662-1.309 6.4435-2.5713-2.5865 3.8803-3.857Zm-1.3253-1.9728-4.2 4.1755-3.2492-3.2667 7.4492-.9088ZM52.509 63c1.933 0 3.5 1.567 3.5 3.5v1.1667H4.6756V66.5c0-1.933 1.567-3.5 3.5-3.5H52.509Zm-16.3334-4.6667v2.3334H24.509v-2.3334h11.6666ZM24.509 56v-8.8667C24.509 44.303 27.1258 42 30.3423 42c3.2165 0 5.8333 2.303 5.8333 5.1333V56H24.509Zm14-3.71v-5.1567c0-4.1171-3.6634-7.4666-8.1667-7.4666a8.3122 8.3122 0 0 0-7.1773 3.9071c-8.8763-9.3489-10.8751-23.2863-4.9845-34.753L58.872 49.7454A30.233 30.233 0 0 1 38.509 52.29Zm24.6948-1.4957L61.56 49.1412 18.7923 6.1157l-1.6508-1.6544 1.6508-1.645L36.15 20.272c.0081 0 .0128.0152.021.021l28.6883 28.8563-1.6555 1.645Z"/>
            <path d="M30.3528 44.3333h-.0105c-1.933-.0029-3.5023 1.5617-3.5053 3.4948-.0029 1.933 1.5618 3.5023 3.4948 3.5052h.0105c1.933.0029 3.5023-1.5617 3.5052-3.4947.003-1.9331-1.5617-3.5024-3.4947-3.5053Zm.8167 4.3272a1.1671 1.1671 0 0 1-.8272.3395c-.6443-.0034-1.1639-.5284-1.1606-1.1727a1.1666 1.1666 0 0 1 1.1606-1.1606c.6443.0033 1.1639.5283 1.1605 1.1726a1.1672 1.1672 0 0 1-.3438.8212h.0105Z"/>
        </symbol>
        <symbol id="ceas">
            <g clip-path="url(#clip0_81207_196)">
                <path d="M68.4614 33.4715C68.4576 14.9819 53.4656 -0.00373771 34.9754 6.99302e-07C16.4858 0.00373911 1.50017 14.9963 1.50391 33.4859C1.50711 48.0502 10.9252 60.9413 24.7995 65.3713C24.9319 65.413 25.0697 65.4343 25.2081 65.4338C25.4719 65.4333 25.7304 65.3628 25.9573 65.2287C26.2527 65.0541 26.4732 64.7764 26.5768 64.449L35.0315 37.6521C37.3429 37.6404 39.2068 35.7568 39.1945 33.4459C39.1827 31.1345 37.2997 29.2706 34.9883 29.2824C34.3666 29.285 33.753 29.4282 33.1944 29.7011L22.0251 18.5302C21.4707 17.9951 20.5879 18.0106 20.0528 18.5644C19.5305 19.1054 19.5305 19.962 20.0528 20.503L31.2162 31.6792C30.3596 33.4277 30.8493 35.5383 32.3895 36.7303L24.3338 62.2647C8.41354 56.4002 0.261689 38.7405 6.12618 22.8203C11.9907 6.90002 29.6503 -1.25183 45.5706 4.61266C61.4909 10.4771 69.6427 28.1374 63.7782 44.0571C60.913 51.8351 55.0261 58.1252 47.4548 61.4989L46.5842 57.3989C46.4251 56.6454 45.6844 56.1636 44.9308 56.3233C44.6931 56.3741 44.4726 56.4857 44.291 56.6475L35.8978 64.1409C35.322 64.653 35.2708 65.5347 35.7835 66.1105C35.9501 66.2974 36.1637 66.4362 36.403 66.5126L47.1188 69.9327C47.8521 70.1682 48.6377 69.765 48.8732 69.0312C48.948 68.7994 48.9603 68.5527 48.9101 68.3145L48.0545 64.2915C60.4452 59.0678 68.4902 46.918 68.4614 33.4715ZM34.9829 32.0766C35.753 32.0766 36.3779 32.7014 36.3779 33.4715C36.3779 34.2422 35.753 34.8665 34.9829 34.8665C34.2123 34.8665 33.588 34.2422 33.588 33.4715C33.588 32.7014 34.2123 32.0766 34.9829 32.0766ZM39.5774 64.5916L44.3551 60.3298L45.6737 66.543L39.5774 64.5916Z" fill="#212121"/>
                <path d="M33.5879 6.96729V9.7572C33.5879 10.5278 34.2122 11.1522 34.9828 11.1522C35.753 11.1522 36.3778 10.5278 36.3778 9.7572V6.96729C36.3778 6.19717 35.753 5.57233 34.9828 5.57233C34.2122 5.57233 33.5879 6.19717 33.5879 6.96729Z" fill="#2196F3"/>
                <path d="M8.4787 32.0765C7.70805 32.0765 7.08374 32.7014 7.08374 33.4715C7.08374 34.2421 7.70805 34.8665 8.4787 34.8665H11.2686C12.0393 34.8665 12.6636 34.2421 12.6636 33.4715C12.6636 32.7014 12.0393 32.0765 11.2686 32.0765H8.4787Z" fill="#2196F3"/>
                <path d="M61.4865 34.8665C62.2572 34.8665 62.8815 34.2421 62.8815 33.4715C62.8815 32.7014 62.2572 32.0765 61.4865 32.0765H58.6966C57.9265 32.0765 57.3016 32.7014 57.3016 33.4715C57.3016 34.2421 57.9265 34.8665 58.6966 34.8665H61.4865Z" fill="#2196F3"/>
            </g>
            <defs>
                <clipPath id="clip0_81207_196">
                <rect width="70" height="70" fill="white"/>
                </clipPath>
            </defs>
        </symbol>
        <symbol id="computer">
            <path d="M14.926 14.965h1.066v4.798h-1.066v-4.797zM19.19 17.097h1.066v2.665h-1.066v-2.665zM10.661 18.696h1.066v1.066h-1.066v-1.066zM7.463 18.163h1.066v1.599h-1.066v-1.599z"></path>
            <path d="M1.599 28.291h25.587c0.883 0 1.599-0.716 1.599-1.599v-2.132c0-0.883-0.716-1.599-1.599-1.599h-0.533v-13.293l3.028-2.868c0.703 0.346 1.553 0.136 2.013-0.499s0.396-1.508-0.152-2.068-1.42-0.644-2.065-0.198c-0.644 0.446-0.873 1.292-0.542 2.002l-2.281 2.163v-1.23c0-0.883-0.716-1.599-1.599-1.599h-21.322c-0.883 0-1.599 0.716-1.599 1.599v15.992h-0.533c-0.883 0-1.599 0.716-1.599 1.599v2.132c0 0.883 0.716 1.599 1.599 1.599zM30.384 4.837c0.294 0 0.533 0.239 0.533 0.533s-0.239 0.533-0.533 0.533c-0.294 0-0.533-0.239-0.533-0.533s0.239-0.533 0.533-0.533zM3.198 6.969c0-0.294 0.239-0.533 0.533-0.533h21.322c0.294 0 0.533 0.239 0.533 0.533v2.239l-1.066 1.013v-2.186c0-0.294-0.239-0.533-0.533-0.533h-19.19c-0.294 0-0.533 0.239-0.533 0.533v13.326c0 0.294 0.239 0.533 0.533 0.533h19.19c0.294 0 0.533-0.239 0.533-0.533v-9.674l1.066-1.010v12.284h-22.388v-15.992zM7.996 13.899c-0.721-0.002-1.354 0.478-1.546 1.174s0.105 1.433 0.725 1.801c0.62 0.368 1.41 0.276 1.928-0.226l1.853 0.93c0.215 0.108 0.476 0.057 0.636-0.123l3.939-4.431 3.872 2.901c0.208 0.156 0.498 0.139 0.686-0.039l3.365-3.188v8.131h-18.124v-12.26h18.124v2.66l-3.771 3.572-3.904-2.927c-0.222-0.166-0.534-0.135-0.718 0.072l-3.993 4.493-1.493-0.746c0.011-0.064 0.018-0.129 0.020-0.193 0-0.883-0.716-1.599-1.599-1.599zM8.529 15.498c0 0.294-0.239 0.533-0.533 0.533s-0.533-0.239-0.533-0.533c0-0.294 0.239-0.533 0.533-0.533s0.533 0.239 0.533 0.533zM11.727 24.027h5.331v0.533c0 0.294-0.239 0.533-0.533 0.533h-4.264c-0.294 0-0.533-0.239-0.533-0.533v-0.533zM1.066 24.56c0-0.294 0.239-0.533 0.533-0.533h9.062v0.533c0 0.883 0.716 1.599 1.599 1.599h4.264c0.883 0 1.599-0.716 1.599-1.599v-0.533h9.062c0.294 0 0.533 0.239 0.533 0.533v2.132c0 0.294-0.239 0.533-0.533 0.533h-25.587c-0.294 0-0.533-0.239-0.533-0.533v-2.132z"></path>
        </symbol>
        <symbol id="astronaut">
            <path d="M31.974 4.524c-0.063-0.193-0.229-0.333-0.43-0.363l-1.91-0.278-0.855-1.731c-0.179-0.365-0.777-0.365-0.956 0l-0.855 1.731-1.91 0.278c-0.201 0.029-0.367 0.17-0.431 0.363-0.062 0.193-0.011 0.405 0.135 0.547l1.383 1.348-0.326 1.903c-0.034 0.2 0.048 0.402 0.212 0.522 0.166 0.121 0.382 0.135 0.562 0.040l1.709-0.899 1.709 0.899c0.078 0.041 0.164 0.061 0.249 0.061 0.11 0 0.221-0.034 0.314-0.102 0.164-0.119 0.246-0.322 0.212-0.522l-0.326-1.903 1.383-1.348c0.145-0.142 0.197-0.354 0.135-0.547zM29.511 5.851c-0.125 0.122-0.183 0.299-0.153 0.472l0.191 1.114-1-0.526c-0.078-0.041-0.163-0.061-0.249-0.061s-0.17 0.020-0.249 0.061l-1.001 0.526 0.191-1.114c0.030-0.173-0.028-0.349-0.153-0.472l-0.81-0.789 1.119-0.163c0.174-0.025 0.324-0.134 0.402-0.292l0.5-1.013 0.5 1.013c0.078 0.157 0.228 0.267 0.402 0.292l1.119 0.163-0.809 0.789zM26.134 20.522h-1.067v1.067h1.067v-1.067zM26.134 22.656h-1.067v1.067h1.067v-1.067zM27.2 21.589h-1.067v1.067h1.067v-1.067zM25.067 21.589h-1.067v1.067h1.067v-1.067zM22.4 26.389h-1.067v1.067h1.067v-1.067zM22.4 28.522h-1.067v1.067h1.067v-1.067zM23.467 27.456h-1.067v1.067h1.067v-1.067zM21.333 27.456h-1.067v1.067h1.067v-1.067zM16 24.256h-1.067v1.067h1.067v-1.067zM16 26.389h-1.067v1.067h1.067v-1.067zM17.067 25.322h-1.067v1.067h1.067v-1.067zM14.933 25.322h-1.067v1.067h1.067v-1.067zM5.867 6.122h-1.067v1.067h1.067v-1.067zM5.867 8.255h-1.067v1.067h1.067v-1.067z"></path>
            <path d="M6.933 7.189h-1.067v1.067h1.067v-1.067zM4.8 7.189h-1.067v1.067h1.067v-1.067z"></path>
            <path d="M24.715 14.159c-0.287-0.388-0.709-0.637-1.188-0.705-0.481-0.068-0.956 0.058-1.34 0.352l-1.252 0.96-1.898 1.417-1.358-0.541c2.421-1.086 4.114-3.508 4.114-6.32 0-3.823-3.123-6.933-6.961-6.933s-6.961 3.11-6.961 6.933c0 1.386 0.414 2.674 1.12 3.758l-2.769-0.024c-0.009 0-0.015 0.004-0.023 0.005-0.053 0.002-0.105 0.013-0.155 0.031-0.013 0.005-0.026 0.008-0.038 0.013-0.006 0.003-0.013 0.003-0.019 0.006l-3.233 1.596c-0.001 0-0.001 0-0.001 0.001l-1.893 0.911c-0.021 0.009-0.042 0.021-0.063 0.035-0.755 0.502-1.012 1.489-0.598 2.295 0.22 0.429 0.595 0.745 1.056 0.889 0.178 0.055 0.359 0.083 0.539 0.083 0.29 0 0.577-0.071 0.839-0.211l1.388-0.738 2.264-1.169 1.357-0.008-5.442 5.416c-0.001 0.001-0.001 0.001-0.002 0.001l-1.339 1.333c-0.316 0.315-0.49 0.732-0.49 1.178s0.174 0.863 0.49 1.179c0.325 0.323 0.752 0.485 1.179 0.485s0.854-0.162 1.18-0.485l1.314-1.309 1.741-1.3 0.901 0.897-1.762 1.754c-0 0.001-0.001 0.001-0.002 0.001l-1.339 1.333c-0.316 0.315-0.49 0.732-0.49 1.178s0.174 0.863 0.49 1.179c0.325 0.323 0.753 0.485 1.18 0.485s0.855-0.162 1.18-0.485l3.482-3.467c0.001-0.001 0.001-0.001 0.001-0.002l1.010-1-0.004-0.004c0.006-0.006 0.015-0.009 0.022-0.015l5.166-5.658 3.471 0.494c0.025 0.004 0.050 0.005 0.075 0.005 0.065 0 0.127-0.015 0.187-0.038 0.018-0.006 0.033-0.015 0.050-0.023 0.019-0.010 0.039-0.015 0.058-0.027l3.213-2.133c0.012-0.008 0.018-0.021 0.029-0.029 0.013-0.010 0.029-0.014 0.041-0.026l1.271-1.191c0.662-0.62 0.753-1.635 0.212-2.362zM2.13 17.77c-0.173 0.093-0.37 0.111-0.558 0.052-0.187-0.058-0.338-0.186-0.427-0.358-0.161-0.314-0.068-0.695 0.214-0.902l1.314-0.632 0.449 1.312-0.992 0.528zM5.628 15.942l-1.548 0.8-0.439-1.283 2.027-1.001-0.040 1.484zM20.727 9.322c0 0.918-0.219 1.785-0.599 2.559l-4.181-1.899c-0.044-0.573-0.341-1.075-0.788-1.388l1.464-4.86c2.378 0.756 4.105 2.974 4.105 5.588zM8.938 9.322c0-3.235 2.644-5.867 5.894-5.867 0.253 0 0.5 0.021 0.745 0.052l-1.432 4.754c-0.019-0.001-0.037-0.006-0.057-0.006-1.033 0-1.873 0.837-1.873 1.867s0.84 1.867 1.873 1.867c0.694 0 1.294-0.383 1.618-0.945l3.862 1.755c-1.075 1.446-2.795 2.39-4.737 2.39-3.25 0-5.894-2.632-5.894-5.867zM14.894 10.122c0 0.441-0.362 0.8-0.806 0.8s-0.806-0.359-0.806-0.8c0-0.441 0.362-0.8 0.806-0.8s0.806 0.359 0.806 0.8zM2.465 25.146c-0.236 0.234-0.619 0.234-0.854 0.001-0.114-0.114-0.176-0.263-0.176-0.423s0.062-0.309 0.176-0.421l0.962-0.958 0.851 0.848-0.959 0.955zM5.679 28.88c-0.236 0.234-0.619 0.235-0.855 0.001-0.114-0.114-0.176-0.263-0.176-0.423s0.062-0.309 0.176-0.421l0.963-0.959 0.852 0.848-0.96 0.955zM9.16 25.411c-0.001 0-0.001 0-0.002 0.001l-1.765 1.76-0.852-0.848 1.763-1.756c0.001-0.001 0.001-0.001 0.002-0.001 0.040-0.040 0.065-0.088 0.090-0.135 0.007-0.014 0.020-0.026 0.026-0.040 0.017-0.041 0.019-0.085 0.026-0.129 0.003-0.025 0.014-0.047 0.014-0.073 0-0.036-0.013-0.070-0.020-0.106-0.006-0.032-0.006-0.065-0.019-0.095-0.020-0.050-0.055-0.094-0.091-0.138-0.010-0.012-0.014-0.027-0.025-0.038h-0.001c-0.001-0-0.001-0.002-0.001-0.002l-1.607-1.6c-0.017-0.017-0.039-0.024-0.058-0.038-0.028-0.022-0.055-0.042-0.087-0.058-0.030-0.015-0.061-0.024-0.093-0.033-0.034-0.010-0.067-0.017-0.103-0.020-0.033-0.002-0.063 0.001-0.095 0.005-0.036 0.004-0.069 0.009-0.104 0.020-0.034 0.011-0.063 0.027-0.094 0.045-0.020 0.011-0.042 0.015-0.061 0.029l-1.773 1.324-0.901-0.897 2.399-2.386 4.361 4.289-0.928 0.919zM15.979 18.394c-0.015-0.002-0.030 0.004-0.045 0.003-0.039-0.002-0.076 0.001-0.115 0.007-0.030 0.005-0.059 0.011-0.088 0.021-0.034 0.012-0.065 0.028-0.097 0.047-0.030 0.018-0.057 0.037-0.083 0.061-0.013 0.011-0.028 0.017-0.040 0.029l-4.698 5.146-4.328-4.257 2.833-2.818c0.209-0.208 0.21-0.546 0.002-0.755-0.105-0.105-0.243-0.157-0.381-0.156v-0.001l-2.219 0.013 0.028-1.607 3.104 0.027c1.265 1.294 3.029 2.101 4.981 2.101 0.437 0 0.864-0.045 1.279-0.123 0.040 0.032 0.079 0.065 0.13 0.085l2.41 0.96 0.152 0.758 0.178 0.885-3.003-0.427zM20.020 18.572l-0.313-1.558 1.446-1.080 0.947 1.257-2.080 1.381zM23.774 15.741l-0.838 0.785-0.931-1.236 0.831-0.637c0.155-0.119 0.351-0.168 0.543-0.143 0.193 0.027 0.364 0.128 0.48 0.284 0.217 0.292 0.18 0.699-0.085 0.947z"></path>
            <path d="M13.602 18.544l-2.143-2.133c-0.207-0.207-0.545-0.207-0.753 0l-2.142 2.133c-0.1 0.101-0.157 0.236-0.157 0.378s0.056 0.278 0.157 0.378l2.142 2.133c0.104 0.103 0.241 0.155 0.377 0.155s0.273-0.052 0.376-0.155l2.143-2.133c0.1-0.1 0.157-0.236 0.157-0.378s-0.057-0.278-0.157-0.378zM11.083 20.303l-1.387-1.381 1.387-1.381 1.387 1.381-1.387 1.381zM17.164 5.071l-0.258 1.036c0.071 0.018 1.738 0.452 1.738 2.149h1.067c-0-2.017-1.666-2.965-2.547-3.185zM19.711 9.322h-1.067v1.067h1.067v-1.067z"></path>
        </symbol>
        <symbol id="insta">
            <path d="M16 2.881c4.275 0 4.781 0.019 6.462 0.094 1.563 0.069 2.406 0.331 2.969 0.55 0.744 0.288 1.281 0.638 1.837 1.194 0.563 0.563 0.906 1.094 1.2 1.838 0.219 0.563 0.481 1.412 0.55 2.969 0.075 1.688 0.094 2.194 0.094 6.463s-0.019 4.781-0.094 6.463c-0.069 1.563-0.331 2.406-0.55 2.969-0.288 0.744-0.637 1.281-1.194 1.837-0.563 0.563-1.094 0.906-1.837 1.2-0.563 0.219-1.413 0.481-2.969 0.55-1.688 0.075-2.194 0.094-6.463 0.094s-4.781-0.019-6.463-0.094c-1.563-0.069-2.406-0.331-2.969-0.55-0.744-0.288-1.281-0.637-1.838-1.194-0.563-0.563-0.906-1.094-1.2-1.837-0.219-0.563-0.481-1.413-0.55-2.969-0.075-1.688-0.094-2.194-0.094-6.463s0.019-4.781 0.094-6.463c0.069-1.563 0.331-2.406 0.55-2.969 0.288-0.744 0.638-1.281 1.194-1.838 0.563-0.563 1.094-0.906 1.838-1.2 0.563-0.219 1.412-0.481 2.969-0.55 1.681-0.075 2.188-0.094 6.463-0.094zM16 0c-4.344 0-4.887 0.019-6.594 0.094-1.7 0.075-2.869 0.35-3.881 0.744-1.056 0.412-1.95 0.956-2.837 1.85-0.894 0.888-1.438 1.781-1.85 2.831-0.394 1.019-0.669 2.181-0.744 3.881-0.075 1.713-0.094 2.256-0.094 6.6s0.019 4.887 0.094 6.594c0.075 1.7 0.35 2.869 0.744 3.881 0.413 1.056 0.956 1.95 1.85 2.837 0.887 0.887 1.781 1.438 2.831 1.844 1.019 0.394 2.181 0.669 3.881 0.744 1.706 0.075 2.25 0.094 6.594 0.094s4.888-0.019 6.594-0.094c1.7-0.075 2.869-0.35 3.881-0.744 1.050-0.406 1.944-0.956 2.831-1.844s1.438-1.781 1.844-2.831c0.394-1.019 0.669-2.181 0.744-3.881 0.075-1.706 0.094-2.25 0.094-6.594s-0.019-4.887-0.094-6.594c-0.075-1.7-0.35-2.869-0.744-3.881-0.394-1.063-0.938-1.956-1.831-2.844-0.887-0.887-1.781-1.438-2.831-1.844-1.019-0.394-2.181-0.669-3.881-0.744-1.712-0.081-2.256-0.1-6.6-0.1v0z"></path>
            <path d="M16 7.781c-4.537 0-8.219 3.681-8.219 8.219s3.681 8.219 8.219 8.219 8.219-3.681 8.219-8.219c0-4.537-3.681-8.219-8.219-8.219zM16 21.331c-2.944 0-5.331-2.387-5.331-5.331s2.387-5.331 5.331-5.331c2.944 0 5.331 2.387 5.331 5.331s-2.387 5.331-5.331 5.331z"></path>
            <path d="M26.462 7.456c0 1.060-0.859 1.919-1.919 1.919s-1.919-0.859-1.919-1.919c0-1.060 0.859-1.919 1.919-1.919s1.919 0.859 1.919 1.919z"></path>
        </symbol>
        <symbol id="twitter">
            <path d="M32 7.075c-1.175 0.525-2.444 0.875-3.769 1.031 1.356-0.813 2.394-2.1 2.887-3.631-1.269 0.75-2.675 1.3-4.169 1.594-1.2-1.275-2.906-2.069-4.794-2.069-3.625 0-6.563 2.938-6.563 6.563 0 0.512 0.056 1.012 0.169 1.494-5.456-0.275-10.294-2.888-13.531-6.862-0.563 0.969-0.887 2.1-0.887 3.3 0 2.275 1.156 4.287 2.919 5.463-1.075-0.031-2.087-0.331-2.975-0.819 0 0.025 0 0.056 0 0.081 0 3.181 2.263 5.838 5.269 6.437-0.55 0.15-1.131 0.231-1.731 0.231-0.425 0-0.831-0.044-1.237-0.119 0.838 2.606 3.263 4.506 6.131 4.563-2.25 1.762-5.075 2.813-8.156 2.813-0.531 0-1.050-0.031-1.569-0.094 2.913 1.869 6.362 2.95 10.069 2.95 12.075 0 18.681-10.006 18.681-18.681 0-0.287-0.006-0.569-0.019-0.85 1.281-0.919 2.394-2.075 3.275-3.394z"></path>
        </symbol>
        <symbol id="facebook">
            <path d="M19 6h5v-6h-5c-3.86 0-7 3.14-7 7v3h-4v6h4v16h6v-16h5l1-6h-6v-3c0-0.542 0.458-1 1-1z"></path>
        </symbol>
        <symbol id="linkdlin">
            <path d="M12 12h5.535v2.837h0.079c0.77-1.381 2.655-2.837 5.464-2.837 5.842 0 6.922 3.637 6.922 8.367v9.633h-5.769v-8.54c0-2.037-0.042-4.657-3.001-4.657-3.005 0-3.463 2.218-3.463 4.509v8.688h-5.767v-18z"></path>
            <path d="M2 12h6v18h-6v-18z"></path>
            <path d="M8 7c0 1.657-1.343 3-3 3s-3-1.343-3-3c0-1.657 1.343-3 3-3s3 1.343 3 3z"></path>
        </symbol>
        <synmbol id="patrat-logo">
            <path d="M20.267 3.733l3.738 3.538-6.938-0.004v17.166h18.133v-6.564l3.733 3.534v-17.671h-18.667zM35.036 17.455l-10.597-10.032h10.597v10.032zM31.746 21.923h-11.81v-11.545h0.835v10.764h10.975v0.782zM22.725 26.72l-0.436 0.898-0.436-0.898h-0.366l0.637 1.198v0.698h0.331v-0.698l0.635-1.198h-0.365zM23.273 28.615l0.154-0.441h0.734l0.155 0.441h0.344l-0.717-1.896h-0.296l-0.716 1.896h0.342zM23.794 27.122l0.275 0.786h-0.549l0.275-0.786zM25.531 27.863c-0.048 0.073-0.072 0.153-0.072 0.241 0 0.16 0.056 0.29 0.168 0.389s0.263 0.148 0.451 0.148 0.349-0.051 0.484-0.152l0.107 0.126h0.367l-0.279-0.329c0.109-0.149 0.164-0.341 0.164-0.574h-0.275c0 0.128-0.026 0.243-0.079 0.348l-0.366-0.432 0.129-0.094c0.091-0.066 0.157-0.132 0.197-0.198s0.060-0.14 0.060-0.219c0-0.12-0.044-0.22-0.133-0.301s-0.201-0.122-0.339-0.122c-0.153 0-0.274 0.043-0.365 0.13s-0.135 0.203-0.135 0.352c0 0.061 0.014 0.124 0.043 0.189s0.081 0.144 0.155 0.237c-0.141 0.101-0.235 0.188-0.283 0.262zM26.386 28.282c-0.093 0.071-0.193 0.107-0.299 0.107-0.095 0-0.17-0.027-0.227-0.082s-0.085-0.126-0.085-0.214c0-0.102 0.052-0.192 0.156-0.271l0.040-0.029 0.414 0.488zM26.046 27.442c-0.089-0.11-0.134-0.202-0.134-0.275 0-0.063 0.018-0.116 0.055-0.158s0.085-0.063 0.147-0.063c0.057 0 0.105 0.018 0.142 0.053s0.056 0.077 0.056 0.126c0 0.075-0.027 0.136-0.081 0.184l-0.040 0.033-0.145 0.099zM29.132 28.472c0.13-0.114 0.205-0.272 0.224-0.474h-0.328c-0.017 0.135-0.059 0.232-0.124 0.29s-0.162 0.087-0.292 0.087c-0.142 0-0.249-0.054-0.323-0.161s-0.109-0.264-0.109-0.469v-0.168c0.002-0.202 0.041-0.355 0.117-0.46s0.188-0.158 0.331-0.158c0.123 0 0.217 0.030 0.28 0.091s0.104 0.158 0.12 0.294h0.328c-0.021-0.207-0.095-0.368-0.223-0.482s-0.296-0.171-0.505-0.171c-0.155 0-0.293 0.037-0.411 0.111s-0.209 0.179-0.272 0.315c-0.063 0.136-0.095 0.294-0.095 0.473v0.177c0.003 0.174 0.035 0.328 0.098 0.46s0.151 0.234 0.266 0.306c0.115 0.071 0.249 0.107 0.4 0.107 0.216 0 0.389-0.056 0.52-0.169zM31.068 28.206c0.064-0.141 0.096-0.304 0.096-0.49v-0.105c-0.001-0.185-0.034-0.347-0.099-0.486s-0.158-0.247-0.277-0.32c-0.119-0.075-0.256-0.112-0.41-0.112s-0.292 0.038-0.411 0.113c-0.119 0.075-0.211 0.183-0.277 0.324s-0.098 0.305-0.098 0.49v0.107c0.001 0.181 0.034 0.342 0.099 0.48s0.159 0.246 0.279 0.322c0.121 0.075 0.258 0.112 0.411 0.112 0.155 0 0.293-0.037 0.411-0.112s0.212-0.183 0.276-0.323zM30.716 27.135c0.080 0.112 0.12 0.273 0.12 0.483v0.099c0 0.214-0.040 0.376-0.119 0.487s-0.19 0.167-0.336 0.167c-0.144 0-0.257-0.057-0.339-0.171s-0.121-0.275-0.121-0.483v-0.109c0.002-0.204 0.043-0.362 0.122-0.473s0.192-0.168 0.335-0.168c0.146 0 0.258 0.056 0.337 0.168z"></path>
        </synmbol>
        <symbol id="company-logo">
            <path fill-rule="evenodd" clip-rule="evenodd" d="M50.1136 5.93452H49.977C49.7671 5.92181 49.5571 5.91672 49.3471 5.91163H49.3471H49.3269H48.8918C48.4946 5.91163 48.0898 5.92181 47.6876 5.94215C47.6573 5.93994 47.6269 5.93994 47.5966 5.94215C43.9522 6.14863 40.3817 7.05951 37.0805 8.62492L36.6479 8.83344V30.9746L37.6598 30.6313C38.5477 30.3261 39.4938 30.0515 40.4728 29.7972C43.1193 29.1178 45.8367 28.7567 48.568 28.7216V31.6306C48.2062 31.6332 47.8546 31.6434 47.503 31.6612H47.4195C45.3175 31.7765 43.2317 32.0967 41.1913 32.6173C38.6072 33.2643 36.1143 34.2357 33.7716 35.5086V7.11189C36.2047 5.69275 38.8253 4.62687 41.5556 3.94596C43.9527 3.32705 46.4169 3.00931 48.8918 3H49.3193C49.8303 3.01271 50.3287 3.0356 50.7967 3.0712C52.0297 3.15778 53.2528 3.35263 54.4521 3.65353V6.51685C53.2874 6.24551 52.1032 6.06695 50.9105 5.98284C50.8863 5.98079 50.8621 5.97872 50.8379 5.97666C50.5911 5.95561 50.344 5.93452 50.1136 5.93452ZM55.1528 8.86138C55.7877 8.9097 56.4455 8.93259 57.1108 8.93259C59.7125 8.92307 62.3031 8.59083 64.8239 7.94339C67.4068 7.29396 69.8986 6.32178 72.2411 5.04956V32.9402C69.8067 34.3585 67.1853 35.4243 64.4546 36.1061C62.0571 36.7227 59.5931 37.0395 57.1184 37.0496C55.2433 37.0647 53.3737 36.8443 51.553 36.3935V8.32229C51.983 8.42146 52.4257 8.51301 52.876 8.58929C53.6147 8.7139 54.3939 8.80544 55.1528 8.86138ZM69.3471 9.07753L68.3352 9.41828C67.4042 9.73106 66.4657 10.0108 65.5221 10.26C62.7749 10.966 59.9514 11.3281 57.1158 11.3382C56.4556 11.3382 55.8485 11.3204 55.2616 11.2822L54.4546 11.2288V31.3178V34.0057L55.1477 34.0667C55.7903 34.1227 56.4531 34.1506 57.1209 34.1506C59.3544 34.1412 61.5781 33.8533 63.7412 33.2937C65.5223 32.8469 67.2552 32.2243 68.9145 31.4348L69.3471 31.2263V9.07753Z" />
            <path d="M35.7371 45.2124C35.5917 45.0615 35.4163 44.943 35.2224 44.8646C35.0284 44.7862 34.8203 44.7496 34.6114 44.7572C34.3888 44.7542 34.1678 44.7957 33.9613 44.8793C33.7719 44.9547 33.5998 45.068 33.4553 45.2124C33.3125 45.3572 33.2013 45.5304 33.129 45.721C33.0497 45.9207 33.0101 46.1341 33.0126 46.3491V50.1431C33.0036 50.4104 33.0546 50.6764 33.1619 50.9212C33.2514 51.1156 33.3807 51.2889 33.5413 51.4298C33.693 51.5575 33.871 51.6495 34.0625 51.6994C34.2469 51.7512 34.4376 51.7777 34.6291 51.7782C34.8404 51.7803 35.0495 51.7351 35.2413 51.646C35.4309 51.563 35.6028 51.4438 35.7473 51.295C35.8881 51.1476 36.0005 50.9752 36.0786 50.7864C36.1597 50.5951 36.201 50.3892 36.2001 50.1812V49.7566H35.2084V50.0948C35.2114 50.2103 35.1916 50.3252 35.1502 50.433C35.1179 50.5137 35.0688 50.5866 35.006 50.6466C34.9446 50.6962 34.8742 50.7334 34.7986 50.7559C34.7316 50.7782 34.6617 50.7902 34.5912 50.7915C34.5026 50.8018 34.413 50.7885 34.3312 50.7527C34.2495 50.717 34.1786 50.6602 34.1257 50.5881C34.0322 50.4356 33.9864 50.2585 33.9942 50.0795V46.5423C33.988 46.3462 34.0297 46.1515 34.1156 45.9753C34.1671 45.8952 34.2399 45.8313 34.3258 45.7908C34.4117 45.7503 34.5071 45.7349 34.6013 45.7464C34.6868 45.7434 34.7717 45.7612 34.8488 45.7984C34.9259 45.8356 34.9929 45.8911 35.044 45.96C35.155 46.1057 35.213 46.2852 35.2084 46.4686V46.7966H36.19V46.4101C36.1919 46.1831 36.1507 45.9578 36.0685 45.7464C35.9953 45.5476 35.8825 45.3659 35.7371 45.2124Z" />
            <path d="M41.6289 45.1691C41.3127 44.9021 40.9136 44.7546 40.5007 44.7521C40.2987 44.7529 40.0984 44.7891 39.9087 44.8589C39.7161 44.9279 39.5384 45.0332 39.3851 45.1691C39.2208 45.3168 39.0897 45.498 39.0005 45.7006C38.9006 45.9323 38.8515 46.183 38.8563 46.4355V50.0744C38.8495 50.3304 38.8987 50.5847 39.0005 50.8195C39.0903 51.0151 39.2215 51.1887 39.3851 51.328C39.5367 51.4688 39.7147 51.5777 39.9087 51.6485C40.0984 51.7183 40.2987 51.7544 40.5007 51.7553C40.7027 51.7549 40.9031 51.7187 41.0926 51.6485C41.29 51.5767 41.4719 51.468 41.6289 51.328C41.7871 51.1861 41.9145 51.013 42.0033 50.8195C42.1051 50.5847 42.1544 50.3304 42.1475 50.0744V46.4355C42.1524 46.183 42.1032 45.9323 42.0033 45.7006C41.9151 45.5001 41.7878 45.3194 41.6289 45.1691ZM41.166 50.0744C41.1743 50.1714 41.1609 50.269 41.1268 50.3601C41.0926 50.4512 41.0386 50.5334 40.9687 50.6008C40.8377 50.7106 40.6725 50.7708 40.5019 50.7708C40.3313 50.7708 40.1662 50.7106 40.0352 50.6008C39.9652 50.5334 39.9112 50.4512 39.8771 50.3601C39.8429 50.269 39.8295 50.1714 39.8379 50.0744V46.4355C39.8295 46.3385 39.8429 46.2409 39.8771 46.1498C39.9112 46.0587 39.9652 45.9764 40.0352 45.9091C40.1662 45.7993 40.3313 45.7391 40.5019 45.7391C40.6725 45.7391 40.8377 45.7993 40.9687 45.9091C41.0386 45.9764 41.0926 46.0587 41.1268 46.1498C41.1609 46.2409 41.1743 46.3385 41.166 46.4355V50.0744Z" />
            <path d="M49.3673 51.6994V44.8107H48.4136L47.1614 48.4572H47.1437L45.8813 44.8107H44.9377V51.6994H45.9218V47.5087H45.9395L46.9033 50.4712H47.3941L48.3655 47.5087H48.3832V51.6994H49.3673Z" />
            <path d="M54.9581 45.2937C54.8065 45.1237 54.6153 44.9943 54.4015 44.9173C54.1712 44.8424 53.9302 44.8063 53.6881 44.8105H52.226V51.6993H53.2075V49.0089H53.7134C54.0197 49.0228 54.3244 48.958 54.5988 48.8207C54.822 48.6968 55.0081 48.515 55.1377 48.2943C55.2512 48.1111 55.3277 47.9071 55.3628 47.6942C55.4014 47.435 55.4192 47.173 55.4159 46.911C55.4255 46.5802 55.3932 46.2495 55.3198 45.9269C55.2543 45.6885 55.1299 45.4706 54.9581 45.2937ZM54.4521 47.3941C54.4479 47.5188 54.4168 47.6412 54.361 47.7527C54.3049 47.8586 54.2162 47.9434 54.1081 47.9942C53.9627 48.0593 53.8041 48.0889 53.6451 48.0807H53.1974V45.7387H53.7033C53.8557 45.7312 54.0075 45.7609 54.146 45.8251C54.2475 45.8834 54.3281 45.9724 54.3762 46.0794C54.4299 46.2004 54.4591 46.331 54.4622 46.4634C54.4622 46.6084 54.4622 46.7609 54.4622 46.9211C54.4622 47.0813 54.4723 47.2466 54.4622 47.3941H54.4521Z" />
            <path d="M59.6077 44.8107H58.8032L57.2854 51.6994H58.2669L58.5553 50.2194H59.8935L60.1819 51.6994H61.1635L59.6077 44.8107ZM58.702 49.2811L59.1852 46.784H59.2029L59.6836 49.2811H58.702Z" />
            <path d="M65.9497 48.9607H65.932L64.4496 44.8107H63.506V51.6994H64.4875V47.557H64.5078L66.0079 51.6994H66.9312V44.8107H65.9497V48.9607Z" />
            <path d="M71.9476 44.8107L71.1583 47.5494H71.1381L70.3488 44.8107H69.3091L70.6574 48.7878V51.6994H71.639V48.7878L72.9873 44.8107H71.9476Z" />
            <path d="M33 53.6445H33.4731V54.9719H33.7943V53.6445H34.2649V53.3724H33V53.6445Z" />
            <path d="M36.9767 53.3724L36.3569 54.9719H36.6984L36.83 54.6083H37.4675L37.6041 54.9719H37.9532L37.3182 53.3724H36.9767ZM36.9261 54.3387L37.1437 53.7462L37.3612 54.3387H36.9261Z" />
            <path d="M40.9079 54.3821H41.2773V54.5881C41.1694 54.6746 41.0358 54.722 40.8978 54.7229C40.8333 54.7265 40.7689 54.7145 40.7099 54.688C40.6509 54.6614 40.5991 54.6211 40.5588 54.5703C40.474 54.4485 40.4322 54.3017 40.4399 54.1533C40.4399 53.7973 40.5942 53.6193 40.9003 53.6193C40.9809 53.6112 41.0617 53.6325 41.128 53.6791C41.1944 53.7257 41.2419 53.7947 41.2621 53.8735L41.5783 53.8125C41.51 53.4997 41.2849 53.3421 40.9003 53.3421C40.6947 53.3366 40.4947 53.4103 40.3413 53.5481C40.2607 53.6276 40.1983 53.7239 40.1586 53.8302C40.1188 53.9365 40.1026 54.0502 40.1111 54.1634C40.1017 54.3823 40.1749 54.5966 40.316 54.7636C40.3943 54.8444 40.4892 54.9071 40.594 54.9475C40.6988 54.9879 40.8111 55.0049 40.9231 54.9975C41.1734 55.0045 41.4165 54.9133 41.6011 54.7432V54.1126H40.9079V54.3821Z" />
            <path d="M44.9226 53.3724H44.5988V54.9719H45.7194V54.6998H44.9226V53.3724Z" />
            <path d="M48.3175 53.3724H47.9937V54.9719H48.3175V53.3724Z" />
            <path d="M51.6365 54.4405L50.9813 53.3724H50.6676V54.9719H50.9686V53.9268L51.6112 54.9719H51.9325V53.3724H51.6365V54.4405Z" />
            <path d="M54.6368 54.2675H55.4337V53.9954H54.6368V53.6445H55.4944V53.3724H54.313V54.9719H55.5273V54.6998H54.6368V54.2675Z" />
            <path d="M61.9122 54.0031H61.2823V53.3724H60.9611V54.9719H61.2823V54.2726H61.9122V54.9719H62.2335V53.3724H61.9122V54.0031Z" />
            <path d="M64.9302 54.2675H65.7296V53.9954H64.9302V53.6445H65.7903V53.3724H64.6089V54.9719H65.8206V54.6998H64.9302V54.2675Z" />
            <path d="M69.0233 54.2676C69.3015 54.2244 69.4432 54.0769 69.4432 53.8226C69.4513 53.7546 69.441 53.6856 69.4134 53.623C69.3858 53.5603 69.3419 53.5063 69.2863 53.4666C69.1415 53.3938 68.9799 53.3614 68.8183 53.3725H68.1404V54.972H68.4617V54.3032H68.5249C68.5934 54.299 68.6619 54.3112 68.7247 54.3388C68.7717 54.3678 68.8108 54.4079 68.8386 54.4558L69.1877 54.9644H69.5722L69.3774 54.6516C69.2913 54.4972 69.1699 54.3656 69.0233 54.2676ZM68.6994 54.0464H68.4617V53.6446H68.7146C68.8248 53.6357 68.9357 53.6486 69.041 53.6827C69.0644 53.7034 69.0828 53.7291 69.095 53.7579C69.1072 53.7867 69.1127 53.8179 69.1113 53.8492C69.1098 53.8804 69.1014 53.911 69.0866 53.9385C69.0718 53.966 69.051 53.9899 69.0258 54.0082C68.9202 54.0406 68.8096 54.0535 68.6994 54.0464Z" />
            <path d="M72.1096 54.2675H72.9064V53.9954H72.1096V53.6445H72.9697V53.3724H71.7858V54.9719H73V54.6998H72.1096V54.2675Z" />
        </symbol>
        <symbol id="ceva-logo">
            <path d="M36.4063 49.1014C36.4222 49.1018 36.4379 49.1049 36.4524 49.1106C36.4669 49.1163 36.4799 49.1245 36.4908 49.1346L36.7089 49.3431C36.5396 49.5118 36.3304 49.6468 36.0955 49.7388C35.8204 49.8391 35.5239 49.8875 35.2257 49.8809C34.9455 49.8859 34.6671 49.8408 34.4078 49.7482C34.1739 49.6632 33.9638 49.5356 33.7916 49.3739C33.6159 49.2062 33.4805 49.0096 33.3935 48.7958C33.2982 48.5574 33.2512 48.3065 33.2545 48.0542C33.2506 47.8003 33.3015 47.548 33.4044 47.3103C33.4997 47.0951 33.6433 46.8986 33.827 46.7322C34.0132 46.5691 34.2359 46.4408 34.4814 46.3555C34.7499 46.265 35.0359 46.22 35.3239 46.2228C35.5914 46.2172 35.8575 46.2582 36.1064 46.3436C36.3223 46.425 36.5206 46.538 36.6926 46.6777L36.5099 46.9004C36.4973 46.9161 36.4816 46.9297 36.4635 46.9407C36.442 46.9535 36.4159 46.9594 36.3899 46.9573C36.3616 46.9556 36.3343 46.9474 36.3109 46.9336L36.2127 46.8743L36.0764 46.7985C36.0175 46.7704 35.9565 46.7458 35.8937 46.7251C35.8128 46.6999 35.7299 46.6801 35.6456 46.6659C35.5386 46.6487 35.4299 46.6408 35.3211 46.6422C35.1138 46.6399 34.908 46.6737 34.7159 46.7417C34.5367 46.8046 34.375 46.8999 34.2415 47.0212C34.1055 47.1503 34.0007 47.3018 33.9334 47.4667C33.8566 47.6553 33.8187 47.8542 33.8216 48.0542C33.8183 48.2574 33.8561 48.4595 33.9334 48.6513C33.9999 48.8147 34.1027 48.9653 34.236 49.0943C34.3609 49.2146 34.5157 49.3086 34.6886 49.3692C34.8666 49.4333 35.0576 49.4655 35.2503 49.4639C35.3615 49.4654 35.4728 49.4591 35.5829 49.445C35.7627 49.4259 35.9351 49.3716 36.0873 49.2862C36.1636 49.2425 36.2356 49.1934 36.3027 49.1393C36.3307 49.1161 36.3676 49.1026 36.4063 49.1014Z" />
            <path d="M42.7044 48.0538C42.7078 48.3052 42.6579 48.5549 42.5572 48.7906C42.4684 49.0043 42.3284 49.1993 42.1465 49.3626C41.9646 49.526 41.745 49.654 41.5021 49.7382C40.9683 49.9151 40.3782 49.9151 39.8444 49.7382C39.603 49.6527 39.3848 49.5244 39.2037 49.3615C39.0219 49.1952 38.8809 48.9986 38.7893 48.7835C38.5929 48.3063 38.5929 47.7847 38.7893 47.3076C38.8823 47.0923 39.0231 46.8951 39.2037 46.7271C39.3864 46.5694 39.6045 46.446 39.8444 46.3647C40.3775 46.1846 40.969 46.1846 41.5021 46.3647C41.7443 46.4502 41.9634 46.5784 42.1455 46.7414C42.325 46.906 42.465 47.1001 42.5572 47.3123C42.6582 47.5495 42.7081 47.8009 42.7044 48.0538ZM42.1319 48.0538C42.1362 47.8527 42.1011 47.6525 42.0283 47.4615C41.9672 47.298 41.8679 47.1472 41.7366 47.0185C41.6087 46.8968 41.4513 46.8013 41.2758 46.739C40.8879 46.6095 40.4586 46.6095 40.0707 46.739C39.8952 46.8013 39.7378 46.8968 39.6099 47.0185C39.4768 47.1464 39.3764 47.2974 39.3155 47.4615C39.1768 47.8472 39.1768 48.2604 39.3155 48.6461C39.377 48.81 39.4773 48.9609 39.6099 49.0891C39.7379 49.2101 39.8953 49.3048 40.0707 49.3663C40.4593 49.4925 40.8872 49.4925 41.2758 49.3663C41.4512 49.3048 41.6086 49.2101 41.7366 49.0891C41.8673 48.9601 41.9665 48.8094 42.0283 48.6461C42.1015 48.4552 42.1365 48.2549 42.1319 48.0538Z" />
            <path d="M47.0013 48.6748L47.0586 48.8074C47.0804 48.76 47.0995 48.7174 47.1213 48.6748C47.1421 48.6302 47.1657 48.5867 47.1922 48.5445L48.5854 46.3439C48.6127 46.306 48.6372 46.2823 48.6645 46.2752C48.7015 46.2654 48.7403 46.2614 48.779 46.2634H49.1907V49.8426H48.7026V47.2109C48.7026 47.1777 48.7026 47.1398 48.7026 47.0995C48.7 47.0585 48.7 47.0174 48.7026 46.9764L47.3012 49.2077C47.2834 49.2412 47.255 49.2694 47.2192 49.2892C47.1834 49.3089 47.1418 49.3193 47.0995 49.3191H47.0204C46.9779 49.3196 46.9362 49.3093 46.9004 49.2896C46.8646 49.2698 46.8362 49.2413 46.8186 49.2077L45.3763 46.9622C45.3763 47.0048 45.3763 47.0474 45.3763 47.0901C45.3763 47.1327 45.3763 47.1706 45.3763 47.2038V49.8355H44.9047V46.2634H45.3164C45.355 46.2614 45.3938 46.2654 45.4309 46.2752C45.4647 46.2898 45.4916 46.314 45.5072 46.3439L46.9304 48.5469C46.9584 48.5876 46.9821 48.6304 47.0013 48.6748Z" />
            <path d="M52.2444 48.4969V49.8376H51.6991V46.2632H52.9151C53.1446 46.2594 53.3735 46.2858 53.594 46.3414C53.7705 46.3849 53.9341 46.4608 54.0739 46.5641C54.195 46.6609 54.2883 46.7809 54.3465 46.9146C54.4109 47.0604 54.4423 47.2157 54.4392 47.3718C54.4416 47.5285 54.4073 47.6841 54.3383 47.829C54.2728 47.9661 54.1721 48.0884 54.0439 48.1866C53.904 48.2942 53.7395 48.3749 53.5613 48.4235C53.349 48.4824 53.127 48.5104 52.9042 48.5064L52.2444 48.4969ZM52.2444 48.1132H52.9042C53.0475 48.1148 53.1902 48.0964 53.3268 48.0587C53.4395 48.0258 53.5433 47.9734 53.6322 47.9048C53.7141 47.8392 53.7775 47.7582 53.8176 47.6679C53.8622 47.5724 53.8844 47.4701 53.883 47.3671C53.8893 47.2677 53.8707 47.1683 53.8283 47.0759C53.7859 46.9834 53.7208 46.9001 53.6376 46.8317C53.4293 46.6904 53.1677 46.622 52.9042 46.6399H52.2444V48.1132Z" />
            <path d="M59.5731 49.8424H59.1423C59.0991 49.8439 59.0566 49.8322 59.0223 49.8093C58.9914 49.787 58.9671 49.7585 58.9514 49.7264L58.5806 48.8617H56.7185L56.334 49.7264C56.3199 49.758 56.2964 49.7858 56.2659 49.8069C56.2312 49.8312 56.1877 49.8438 56.1432 49.8424H55.7124L57.3483 46.2629H57.9154L59.5731 49.8424ZM56.8739 48.5134H58.4116L57.7627 47.0565C57.7131 46.9469 57.6721 46.8345 57.64 46.7201L57.5773 46.9072C57.5582 46.9641 57.5364 47.0162 57.5173 47.0589L56.8739 48.5134Z" />
            <path d="M61.9288 46.2795C61.9614 46.2951 61.9894 46.317 62.0106 46.3435L64.3962 49.0418C64.3962 48.9991 64.3962 48.9565 64.3962 48.9162C64.3962 48.8759 64.3962 48.8357 64.3962 48.7978V46.263H64.8843V49.8425H64.6116C64.5729 49.8435 64.5345 49.8362 64.4998 49.8212C64.4662 49.8041 64.4365 49.7816 64.4126 49.7548L62.0297 47.0589C62.0323 47.1 62.0323 47.1411 62.0297 47.1821C62.0297 47.2224 62.0297 47.2579 62.0297 47.2911V49.8425H61.5416V46.263H61.8306C61.8644 46.2621 61.8979 46.2678 61.9288 46.2795Z" />
            <path d="M68.9031 48.4189V49.8402H68.3578V48.4189L66.8501 46.2631H67.3381C67.3802 46.2609 67.4218 46.2719 67.4554 46.2939C67.4851 46.3169 67.51 46.3441 67.529 46.3745L68.4724 47.765C68.5105 47.8243 68.5432 47.8787 68.5705 47.9309C68.5978 47.983 68.6196 48.0327 68.6387 48.0825L68.7096 47.9285C68.736 47.8722 68.767 47.8176 68.8023 47.765L69.732 46.365C69.7516 46.337 69.7754 46.3115 69.8029 46.2892C69.8352 46.2646 69.8772 46.2519 69.9201 46.2536H70.4136L68.9031 48.4189Z" />
            <path d="M46.7314 40.2561C46.9686 40.2822 47.2086 40.3035 47.4512 40.3225C51.1301 38.8926 54.2422 36.5523 56.3987 33.5942C58.5552 30.636 59.6603 27.1912 59.5759 23.6904L55.5216 20.1678C56.346 23.8951 55.9604 27.7482 54.408 31.2959C52.8555 34.8437 50.1976 37.9461 46.7314 40.2561Z" />
            <path d="M45.2837 40.0923L45.3928 40.1112C49.0966 37.8094 51.9205 34.5951 53.4993 30.8839C55.078 27.1727 55.3389 23.1353 54.2483 19.2939L48.4737 14.2767C50.8094 18.4008 51.7495 23.0162 51.1848 27.5862C50.6201 32.1562 48.5737 36.493 45.2837 40.0923Z" />
            <path d="M64.868 27.8266C63.8869 31.6732 61.5042 35.1423 58.0736 37.7189C57.0717 38.4756 55.991 39.1497 54.8455 39.7325C57.6389 39.0191 60.2065 37.7579 62.3503 36.046C64.494 34.3342 66.1567 32.2175 67.21 29.8591L64.868 27.8266Z" />
            <path d="M63.949 27.2602L60.6146 24.363C60.5508 27.6661 59.47 30.8941 57.4845 33.7115C55.499 36.5289 52.6813 38.8328 49.3242 40.3838H49.3406C50.0887 40.3836 50.8362 40.3448 51.579 40.2678C54.7164 39.1552 57.488 37.385 59.6464 35.1153C61.8049 32.8456 63.283 30.147 63.949 27.2602Z" />
            <path d="M45.7663 12.161L41.7883 8.70001C38.2322 9.89397 35.1738 11.9929 33.0134 14.7221C30.8529 17.4513 29.6912 20.6836 29.6801 23.996V23.996C29.6934 27.656 31.1113 31.2077 33.7093 34.0889C36.3073 36.97 39.9371 39.016 44.0241 39.9031C47.6725 36.041 49.8086 31.2688 50.1219 26.2798C50.4352 21.2908 48.9094 16.345 45.7663 12.161Z" />
            <path d="M73.1401 26.7274C73.1257 22.3849 71.1339 18.2238 67.5997 15.1532C64.0656 12.0826 59.2764 10.352 54.2784 10.3395C51.9688 10.3375 49.6789 10.7078 47.5249 11.4316L71.8805 32.5927C72.7144 30.7221 73.1415 28.7334 73.1401 26.7274Z" />
        </symbol>
        <symbol id="picatura-logo">
            <path d="M24.1462 21.1029H24.1433C21.7453 21.1029 19.8013 22.8305 19.8013 24.9616V24.9641C19.8013 27.0952 21.7453 28.8228 24.1433 28.8228H24.1462C26.5442 28.8228 28.4882 27.0952 28.4882 24.9641V24.9616C28.4882 22.8305 26.5442 21.1029 24.1462 21.1029Z" />
            <path d="M56.195 19.8693C56.1882 16.9094 54.8623 14.0723 52.5074 11.979C50.1525 9.88574 46.9604 8.70673 43.6297 8.70001V8.70001C40.298 8.70539 37.1045 9.8838 34.7484 11.9772C32.3922 14.0706 31.0655 16.9085 31.0587 19.8693V36.1922C31.0587 36.1922 56.1922 33.7045 56.195 19.8719V19.8693Z" />
            <path d="M11 41.5495C11.006 43.6091 11.9291 45.5829 13.5676 47.0395C15.2061 48.4961 17.4267 49.3171 19.7442 49.3231C22.0612 49.3171 24.2814 48.4964 25.9197 47.0404C27.5581 45.5843 28.4816 43.6112 28.4884 41.5521V30.1944C28.4884 30.1944 11 31.9267 11 41.5495ZM19.7442 43.5845C19.2913 43.5845 18.8486 43.4652 18.472 43.2415C18.0955 43.0179 17.802 42.7001 17.6287 42.3283C17.4554 41.9564 17.41 41.5473 17.4984 41.1525C17.5867 40.7578 17.8048 40.3952 18.125 40.1106C18.4453 39.826 18.8533 39.6322 19.2975 39.5537C19.7416 39.4751 20.202 39.5154 20.6205 39.6695C21.0389 39.8235 21.3965 40.0843 21.6481 40.419C21.8997 40.7536 22.034 41.1471 22.034 41.5495C22.0351 41.8174 21.9767 42.0828 21.8622 42.3306C21.7476 42.5784 21.5791 42.8036 21.3664 42.9934C21.1536 43.1832 20.9008 43.3338 20.6224 43.4365C20.3441 43.5392 20.0456 43.5921 19.7442 43.5921V43.5845Z" />
            <path d="M37.4177 42.4638H35.7302V44.207H34.8513V39.9413H37.6286V40.6533H35.7302V41.7548H37.4177V42.4638ZM41.6423 42.1708C41.6423 42.5908 41.5681 42.9589 41.4196 43.2753C41.2712 43.5917 41.0583 43.8359 40.7809 44.0078C40.5056 44.1796 40.1891 44.2656 39.8317 44.2656C39.4782 44.2656 39.1628 44.1806 38.8854 44.0107C38.6081 43.8408 38.3932 43.5986 38.2409 43.2841C38.0886 42.9677 38.0114 42.6044 38.0095 42.1943V41.9833C38.0095 41.5634 38.0847 41.1943 38.235 40.8759C38.3874 40.5556 38.6013 40.3105 38.8766 40.1406C39.154 39.9687 39.4704 39.8828 39.8259 39.8828C40.1813 39.8828 40.4968 39.9687 40.7722 40.1406C41.0495 40.3105 41.2634 40.5556 41.4138 40.8759C41.5661 41.1943 41.6423 41.5624 41.6423 41.9804V42.1708ZM40.7516 41.9775C40.7516 41.5302 40.6716 41.1904 40.5114 40.9579C40.3513 40.7255 40.1227 40.6093 39.8259 40.6093C39.5309 40.6093 39.3034 40.7245 39.1432 40.955C38.9831 41.1835 38.902 41.5195 38.9001 41.9628V42.1708C38.9001 42.6064 38.9802 42.9443 39.1403 43.1845C39.3005 43.4247 39.5309 43.5449 39.8317 43.5449C40.1266 43.5449 40.3532 43.4296 40.5114 43.1992C40.6696 42.9667 40.7497 42.6288 40.7516 42.1855V41.9775ZM44.4929 43.0878C44.4929 42.9218 44.4343 42.7949 44.3171 42.707C44.1999 42.6171 43.989 42.5234 43.6843 42.4257C43.3796 42.3261 43.1384 42.2285 42.9606 42.1328C42.4763 41.871 42.2341 41.5185 42.2341 41.0751C42.2341 40.8447 42.2985 40.6396 42.4274 40.4599C42.5583 40.2783 42.7448 40.1367 42.987 40.0351C43.2311 39.9335 43.5046 39.8828 43.8073 39.8828C44.112 39.8828 44.3835 39.9384 44.6218 40.0497C44.86 40.1591 45.0446 40.3144 45.1755 40.5156C45.3083 40.7167 45.3747 40.9453 45.3747 41.2011H44.4958C44.4958 41.0058 44.4343 40.8544 44.3112 40.747C44.1882 40.6376 44.0153 40.5829 43.7927 40.5829C43.5778 40.5829 43.4108 40.6288 43.2917 40.7206C43.1725 40.8105 43.113 40.9296 43.113 41.0781C43.113 41.2167 43.1823 41.3329 43.321 41.4267C43.4616 41.5204 43.6677 41.6083 43.9391 41.6904C44.4391 41.8408 44.8034 42.0273 45.0319 42.2499C45.2604 42.4726 45.3747 42.7499 45.3747 43.082C45.3747 43.4511 45.235 43.7411 44.9557 43.9521C44.6765 44.1611 44.3005 44.2656 43.8278 44.2656C43.4997 44.2656 43.2009 44.206 42.9313 44.0869C42.6618 43.9658 42.4557 43.8007 42.3132 43.5917C42.1725 43.3828 42.1022 43.1406 42.1022 42.8652H42.9841C42.9841 43.3359 43.2653 43.5712 43.8278 43.5712C44.0368 43.5712 44.1999 43.5292 44.3171 43.4453C44.4343 43.3593 44.4929 43.2402 44.4929 43.0878ZM49.1833 40.6533H47.8766V44.207H46.9977V40.6533H45.7087V39.9413H49.1833V40.6533ZM52.2536 42.3583H50.5661V43.5009H52.5466V44.207H49.6872V39.9413H52.5407V40.6533H50.5661V41.6699H52.2536V42.3583ZM54.6413 42.6454H53.9411V44.207H53.0622V39.9413H54.6472C55.1511 39.9413 55.5397 40.0536 55.8132 40.2783C56.0866 40.5029 56.2233 40.8203 56.2233 41.2304C56.2233 41.5214 56.1599 41.7646 56.0329 41.9599C55.9079 42.1533 55.7175 42.3076 55.4616 42.4228L56.3845 44.166V44.207H55.4411L54.6413 42.6454ZM53.9411 41.9335H54.6501C54.8708 41.9335 55.0417 41.8779 55.1628 41.7665C55.2839 41.6533 55.3444 41.498 55.3444 41.3007C55.3444 41.0995 55.2868 40.9413 55.1716 40.8261C55.0583 40.7109 54.8835 40.6533 54.6472 40.6533H53.9411V41.9335ZM59.2673 42.704V44.207H58.3884V39.9413H60.0524C60.3727 39.9413 60.654 39.9999 60.8962 40.1171C61.1403 40.2343 61.3278 40.4013 61.4587 40.6181C61.5895 40.8329 61.655 41.0781 61.655 41.3535C61.655 41.7714 61.5114 42.1015 61.2243 42.3437C60.9391 42.5839 60.5436 42.704 60.0378 42.704H59.2673ZM59.2673 41.9921H60.0524C60.2849 41.9921 60.4616 41.9374 60.5827 41.8281C60.7057 41.7187 60.7673 41.5624 60.7673 41.3593C60.7673 41.1503 60.7057 40.9814 60.5827 40.8525C60.4597 40.7236 60.2897 40.6572 60.0729 40.6533H59.2673V41.9921ZM64.8278 42.3583H63.1403V43.5009H65.1208V44.207H62.2614V39.9413H65.1149V40.6533H63.1403V41.6699H64.8278V42.3583ZM68.9059 40.6533H67.5993V44.207H66.7204V40.6533H65.4313V39.9413H68.9059V40.6533ZM71.9763 42.3583H70.2888V43.5009H72.2692V44.207H69.4099V39.9413H72.2634V40.6533H70.2888V41.6699H71.9763V42.3583ZM74.364 42.6454H73.6638V44.207H72.7849V39.9413H74.3698C74.8737 39.9413 75.2624 40.0536 75.5358 40.2783C75.8093 40.5029 75.946 40.8203 75.946 41.2304C75.946 41.5214 75.8825 41.7646 75.7556 41.9599C75.6306 42.1533 75.4401 42.3076 75.1843 42.4228L76.1071 44.166V44.207H75.1638L74.364 42.6454ZM73.6638 41.9335H74.3727C74.5934 41.9335 74.7643 41.8779 74.8854 41.7665C75.0065 41.6533 75.0671 41.498 75.0671 41.3007C75.0671 41.0995 75.0095 40.9413 74.8942 40.8261C74.7809 40.7109 74.6061 40.6533 74.3698 40.6533H73.6638V41.9335ZM78.8288 43.0878C78.8288 42.9218 78.7702 42.7949 78.653 42.707C78.5358 42.6171 78.3249 42.5234 78.0202 42.4257C77.7155 42.3261 77.4743 42.2285 77.2966 42.1328C76.8122 41.871 76.57 41.5185 76.57 41.0751C76.57 40.8447 76.6345 40.6396 76.7634 40.4599C76.8942 40.2783 77.0807 40.1367 77.3229 40.0351C77.5671 39.9335 77.8405 39.8828 78.1432 39.8828C78.4479 39.8828 78.7194 39.9384 78.9577 40.0497C79.196 40.1591 79.3806 40.3144 79.5114 40.5156C79.6442 40.7167 79.7106 40.9453 79.7106 41.2011H78.8317C78.8317 41.0058 78.7702 40.8544 78.6472 40.747C78.5241 40.6376 78.3513 40.5829 78.1286 40.5829C77.9138 40.5829 77.7468 40.6288 77.6276 40.7206C77.5085 40.8105 77.4489 40.9296 77.4489 41.0781C77.4489 41.2167 77.5182 41.3329 77.6569 41.4267C77.7975 41.5204 78.0036 41.6083 78.2751 41.6904C78.7751 41.8408 79.1393 42.0273 79.3679 42.2499C79.5964 42.4726 79.7106 42.7499 79.7106 43.082C79.7106 43.4511 79.571 43.7411 79.2917 43.9521C79.0124 44.1611 78.6364 44.2656 78.1638 44.2656C77.8356 44.2656 77.5368 44.206 77.2673 44.0869C76.9977 43.9658 76.7917 43.8007 76.6491 43.5917C76.5085 43.3828 76.4382 43.1406 76.4382 42.8652H77.32C77.32 43.3359 77.6013 43.5712 78.1638 43.5712C78.3727 43.5712 78.5358 43.5292 78.653 43.4453C78.7702 43.3593 78.8288 43.2402 78.8288 43.0878Z" />
        </symbol>
        <symbol id="frunze-logo">
            <path d="M26.7569 44.7352C27.0006 45.0113 27.1304 45.3572 27.1236 45.7121C27.136 45.9437 27.0914 46.1748 26.993 46.3884C26.8947 46.6021 26.7451 46.7927 26.5554 46.9462C26.082 47.2735 25.4956 47.4336 24.9037 47.3969H22V41.2054H24.8442C25.4057 41.1712 25.9626 41.3166 26.42 41.6168C26.6036 41.7575 26.7491 41.9354 26.8448 42.1365C26.9406 42.3375 26.984 42.5562 26.9716 42.7752C26.9883 43.1167 26.8712 43.4525 26.6413 43.7219C26.4206 43.9679 26.1156 44.1385 25.7758 44.2059C26.161 44.2702 26.5087 44.4578 26.7569 44.7352ZM23.3511 43.8006H24.5667C24.843 43.8193 25.1174 43.7463 25.3397 43.5949C25.431 43.5191 25.502 43.4252 25.5473 43.3203C25.5925 43.2154 25.6108 43.1024 25.6007 42.99C25.6093 42.8779 25.5906 42.7656 25.5461 42.661C25.5015 42.5564 25.4322 42.4621 25.343 42.385C25.1141 42.2294 24.8312 42.1552 24.5469 42.1763H23.3511V43.8006ZM25.4587 46.1749C25.5562 46.0974 25.6329 46.0003 25.6828 45.8911C25.7326 45.782 25.7543 45.6638 25.7461 45.5458C25.7535 45.4264 25.7309 45.307 25.6799 45.1968C25.6289 45.0867 25.551 44.9888 25.4521 44.9106C25.2142 44.7492 24.9217 44.6699 24.6262 44.6868H23.3511V46.3897H24.6427C24.9334 46.405 25.2212 46.3293 25.4587 46.1749Z" />
            <path d="M32.5709 47.3969L30.9886 44.9772H30.394V47.3969H29.033V41.2054H31.6096C32.2591 41.1639 32.9012 41.3523 33.4034 41.7317C33.7635 42.0677 33.9808 42.5105 34.0159 42.9803C34.051 43.45 33.9018 43.9157 33.595 44.2936C33.2771 44.6271 32.8428 44.8494 32.3661 44.9227L34.0508 47.3969H32.5709ZM30.394 44.1333H31.5072C32.2802 44.1333 32.6667 43.8207 32.6667 43.1956C32.6746 43.068 32.6534 42.9402 32.6045 42.8205C32.5556 42.7007 32.48 42.5916 32.3826 42.5C32.1383 42.314 31.8237 42.2237 31.5072 42.2489H30.3807L30.394 44.1333Z" />
            <path d="M40.0102 46.1506H37.2981L36.8191 47.3967H35.392L37.8828 41.2748H39.4255L41.9063 47.3967H40.4793L40.0102 46.1506ZM39.6468 45.2129L38.6558 42.5996L37.6648 45.2129H39.6468Z" />
            <path d="M49.3224 47.3968H47.9713L44.9421 43.1865V47.3968H43.5943V41.2053H44.9421L47.9713 45.4398V41.2053H49.3224V47.3968Z" />
            <path d="M57.0326 45.9148C56.7532 46.3823 56.3276 46.7625 55.8103 47.0067C55.2222 47.2787 54.5695 47.4128 53.9109 47.3969H51.506V41.2054H53.9109C54.5684 41.1897 55.2202 41.3205 55.8103 41.5865C56.3275 41.8252 56.7536 42.2016 57.0326 42.6663C57.3107 43.1699 57.4556 43.7263 57.4556 44.2906C57.4556 44.8549 57.3107 45.4112 57.0326 45.9148ZM55.4866 45.7666C55.8722 45.3553 56.0842 44.8311 56.0842 44.2891C56.0842 43.747 55.8722 43.2228 55.4866 42.8115C55.0205 42.439 54.4127 42.2498 53.7952 42.2852H52.8571V46.2929H53.7952C54.4127 46.3283 55.0205 46.1392 55.4866 45.7666Z" />
            <path d="M40.8558 6.76666C40.8558 6.76666 58.2945 12.7948 57.9245 21.5179V36.2722C57.9245 36.2722 40.4991 30.241 40.8624 21.5179L40.8558 6.76666Z" />
            <path d="M73.4603 32.8179C76.7538 30.7427 80.5633 29.4573 84.5399 29.0795V24.4608C79.9579 26.0778 76.0709 29.0097 73.4603 32.8179Z" />
            <path d="M71.4816 34.2094C74.1773 29.2395 78.8505 25.4045 84.54 23.493V10.1846C84.54 10.1846 59.705 18.7716 60.2303 31.1938V52.2C60.2303 52.2 61.3369 51.8159 63.0778 51.096C63.0778 50.4246 63.0778 49.747 63.1571 49.0665C63.6711 43.2995 66.6654 37.9554 71.4816 34.2094Z" />
            <path d="M69.1197 42.013C69.2502 40.5561 69.5413 39.1151 69.9885 37.7119C66.9896 40.947 65.1734 44.9613 64.7956 49.1905C64.7592 49.5897 64.7394 49.989 64.7295 50.4003C66.14 49.7803 67.7818 49.006 69.5062 48.0956C69.0662 46.0947 68.936 44.0471 69.1197 42.013Z" />
            <path d="M70.1075 42.0886C69.9421 43.9289 70.0454 45.7812 70.4147 47.5965C77.1999 43.8792 84.8241 38.1354 84.5301 31.1938V30.5889C79.6824 31.0855 75.1468 33.0259 71.6204 36.1119C70.7948 38.0243 70.2849 40.0386 70.1075 42.0886Z" />
        </symbol>
        <synmbol id="dreptunghi-logo">
            <path d="M53.425 27.4082C52.9819 26.8184 52.7699 26.1213 52.8203 25.4196V22.5364C52.8203 21.6526 53.0207 20.9809 53.4216 20.5214C53.8224 20.0619 54.511 19.8331 55.4871 19.8351C56.4044 19.8351 57.0555 20.0306 57.4405 20.4217C57.8605 20.9207 58.0648 21.5309 58.018 22.1463V22.8239H56.3772V22.1375C56.383 21.9129 56.3671 21.6882 56.3296 21.4659C56.306 21.3138 56.2234 21.1732 56.0952 21.067C55.9267 20.9525 55.7145 20.897 55.5007 20.9115C55.2759 20.897 55.0529 20.9556 54.8756 21.0758C54.7327 21.1935 54.6374 21.3477 54.6038 21.5157C54.5567 21.7511 54.5351 21.9897 54.5393 22.2285V25.7276C54.5134 26.0652 54.5858 26.403 54.7499 26.7102C54.8315 26.8141 54.9448 26.8965 55.0774 26.9483C55.2099 27.0001 55.3564 27.0192 55.5007 27.0035C55.7109 27.0184 55.9195 26.9615 56.0816 26.8451C56.2153 26.7305 56.3013 26.581 56.3262 26.4198C56.3645 26.1877 56.3816 25.9533 56.3772 25.7188V25.009H58.018V25.6572C58.0641 26.2988 57.8648 26.9356 57.4507 27.4698C57.0736 27.8981 56.4315 28.1122 55.4871 28.1122C54.5427 28.1122 53.8292 27.8834 53.425 27.4082Z" />
            <path d="M60.2569 27.4376C59.8424 26.9888 59.6352 26.3347 59.6352 25.4695V22.4367C59.6352 21.5803 59.8424 20.9321 60.2569 20.4921C60.6713 20.0521 61.3644 19.8331 62.3359 19.8351C63.3007 19.8351 63.9904 20.0541 64.4048 20.4921C64.8193 20.9321 65.0299 21.5803 65.0299 22.4367V25.4695C65.0299 26.3259 64.8193 26.9829 64.398 27.4346C63.9768 27.8863 63.2906 28.1122 62.3359 28.1122C61.3813 28.1122 60.6747 27.8834 60.2569 27.4376ZM63.1003 26.7102C63.2487 26.4291 63.3163 26.1212 63.2974 25.8127V22.0994C63.3164 21.7969 63.2499 21.4949 63.1037 21.2195C63.0205 21.1134 62.9043 21.0296 62.7686 20.9777C62.6328 20.9259 62.4829 20.908 62.3359 20.9262C62.1885 20.9085 62.0383 20.9265 61.9021 20.9783C61.7659 21.0301 61.6491 21.1136 61.5648 21.2195C61.4154 21.4941 61.3477 21.7965 61.3678 22.0994V25.8303C61.3471 26.1389 61.4148 26.4471 61.5648 26.7278C61.6604 26.8224 61.7785 26.8982 61.9109 26.9502C62.0433 27.0021 62.1871 27.029 62.3326 27.029C62.478 27.029 62.6218 27.0021 62.7542 26.9502C62.8866 26.8982 63.0047 26.8224 63.1003 26.7278V26.7102Z" />
            <path d="M67.0035 19.9236H68.7701L70.0984 25.5192L71.4573 19.9236H73.1763L73.3496 28.0003H72.079L71.9431 22.3871L70.6318 28.0003H69.6126L68.2537 22.3665L68.128 28.0003H66.8439L67.0035 19.9236Z" />
            <path d="M75.3302 19.9236H78.0819C79.6673 19.9236 80.4599 20.688 80.4599 22.217C80.4599 23.6814 79.6254 24.4126 77.9562 24.4106H77.0186V28.0003H75.32L75.3302 19.9236ZM77.6811 23.3754C77.8489 23.3938 78.0193 23.3805 78.1806 23.3364C78.3419 23.2924 78.4902 23.2186 78.6153 23.1203C78.8101 22.8475 78.896 22.5271 78.8599 22.2082C78.8688 21.9618 78.8414 21.7154 78.7783 21.475C78.7541 21.3947 78.7116 21.3194 78.6533 21.2534C78.5949 21.1874 78.522 21.1322 78.4386 21.0908C78.2028 20.9932 77.9422 20.9488 77.6811 20.9618H77.022V23.3754H77.6811Z" />
            <path d="M82.9094 19.9236H84.7337L86.6056 28.0003H85.0225L84.6522 26.138H83.0249L82.6445 28.0003H81.0376L82.9094 19.9236ZM84.4687 25.2025L83.8335 21.8123L83.1982 25.2025H84.4687Z" />
            <path d="M88.1173 19.9236H89.3063L91.5825 24.5309V19.9236H92.9923V28.0003H91.861L89.5713 23.1906V28.0003H88.1139L88.1173 19.9236Z" />
            <path d="M96.2945 24.9208L94.4022 19.9349H95.9955L97.1506 23.1376L98.2343 19.9349H99.7936L97.9251 24.9208V28.0003H96.2945V24.9208Z" />
            <path d="M56.0477 31.5316V31.954H54.6617V35.2359H54.0807V31.954H52.6879V31.5316H56.0477Z" />
            <path d="M60.3927 35.2361H59.9442C59.8987 35.2386 59.8538 35.226 59.8185 35.2009C59.7846 35.1794 59.7587 35.1499 59.7438 35.1159L59.3429 34.2361H57.4201L57.0192 35.1159C57.0078 35.1527 56.9869 35.1868 56.958 35.2156C56.9225 35.2402 56.8778 35.2527 56.8324 35.2508H56.3839L58.0825 31.5467H58.6737L60.3927 35.2361ZM57.5797 33.8607H59.1833L58.5038 32.3532C58.4537 32.2392 58.4117 32.1227 58.3781 32.0042C58.3543 32.0746 58.3339 32.142 58.3136 32.2007L58.2524 32.3561L57.5797 33.8607Z" />
            <path d="M63.3211 34.8724C63.4275 34.8772 63.5341 34.8772 63.6404 34.8724C63.7323 34.8642 63.8232 34.8495 63.9122 34.8284C63.9954 34.8107 64.0772 34.7882 64.1568 34.7609C64.2316 34.7345 64.3063 34.7022 64.3844 34.67V33.8369H63.705C63.6882 33.8378 63.6714 33.8356 63.6556 33.8305C63.6398 33.8255 63.6254 33.8177 63.6133 33.8076C63.6021 33.7993 63.5933 33.7889 63.5874 33.7772C63.5815 33.7655 63.5787 33.7529 63.5793 33.7401V33.4556H64.8974V34.8753C64.7898 34.9417 64.6762 35.0006 64.5577 35.0513C64.4366 35.1029 64.3104 35.1451 64.1806 35.1774C64.0417 35.2127 63.8996 35.2382 63.7559 35.2537C63.5912 35.2695 63.4257 35.2773 63.26 35.2771C62.967 35.2793 62.6763 35.2325 62.4038 35.1393C62.1495 35.051 61.9184 34.9193 61.7244 34.7521C61.5353 34.5832 61.3864 34.3839 61.2862 34.1655C61.1791 33.9199 61.1261 33.6593 61.1299 33.397C61.1263 33.133 61.1781 32.8706 61.2828 32.6226C61.3805 32.4031 61.5297 32.2033 61.721 32.036C61.9149 31.8693 62.1461 31.7386 62.4005 31.6517C62.6914 31.5572 63.0001 31.5105 63.3109 31.5138C63.4691 31.5137 63.627 31.5245 63.7831 31.5461C63.9212 31.5655 64.0567 31.597 64.1874 31.64C64.3062 31.6785 64.4201 31.7277 64.5271 31.7866C64.6312 31.8445 64.7301 31.9092 64.8227 31.9802L64.6596 32.209C64.6468 32.2299 64.6278 32.2475 64.6045 32.2598C64.5812 32.2722 64.5545 32.279 64.5271 32.2794C64.4895 32.2784 64.453 32.2682 64.4218 32.2501C64.3708 32.2266 64.3165 32.1973 64.2553 32.1621C64.1831 32.123 64.1069 32.0896 64.0277 32.0624C63.9265 32.0273 63.8219 31.9998 63.7152 31.9802C63.5729 31.9576 63.4284 31.9468 63.2837 31.948C63.0596 31.9458 62.8371 31.9807 62.6281 32.0506C62.439 32.1161 62.2686 32.2162 62.1287 32.3439C61.9879 32.4771 61.8803 32.6339 61.8127 32.8045C61.661 33.2056 61.661 33.6381 61.8127 34.0393C61.8871 34.2135 62.0028 34.3724 62.1525 34.5057C62.2918 34.6328 62.4609 34.7328 62.6485 34.799C62.8645 34.8631 63.0934 34.888 63.3211 34.8724Z" />
            <path d="M68.7362 34.8136H70.5911V35.2359H68.1689V31.5316H68.7498L68.7362 34.8136Z" />
            <path d="M72.5208 35.2359H71.9398V31.5316H72.5208V35.2359Z" />
            <path d="M74.6814 31.5492C74.7159 31.5662 74.746 31.5892 74.7697 31.6167L77.253 34.409C77.2497 34.3651 77.2497 34.321 77.253 34.277C77.253 34.236 77.253 34.1949 77.253 34.1568V31.517H77.7592V35.2362H77.4671C77.4238 35.2392 77.3804 35.2321 77.3414 35.2156C77.3061 35.1972 77.275 35.1733 77.2496 35.1452L74.7697 32.3558C74.7697 32.3998 74.7697 32.4409 74.7697 32.482C74.7697 32.523 74.7697 32.5612 74.7697 32.5964V35.2362H74.2839V31.5316H74.5863C74.6191 31.5317 74.6515 31.5377 74.6814 31.5492Z" />
            <path d="M82.0364 31.5316V31.9393H79.9777V33.1624H81.6457V33.5554H79.9777V34.8195H82.0364V35.2272H79.3798V31.5316H82.0364Z" />
            <path d="M21.1618 8.65544L46.9568 14.9788V37.1367L21.1618 30.8164V8.65544ZM19.5073 6.76666V31.8927L48.6079 39.0285V13.9053L19.5073 6.76666Z" />
            <path d="M35.1039 50.6922L6 43.5505V18.4271L35.1039 25.5658V50.6922Z" />
            <path d="M19.9897 8.37093L45.4484 14.6149L34.6215 23.9648L9.1594 17.7179L19.9897 8.37093ZM19.5073 6.76666L6 18.4276L35.1039 25.5662L48.6078 13.9052L19.5073 6.76666Z" />
            <path d="M36.7415 49.2788L48.6078 39.0315L36.7415 36.1193V49.2788Z" />
        </synmbol>
    </defs>
</svg>
